# This file uses centimeters as units for non-parametric coordinates.

mtllib TN_river_rocks_1.mtl
g default
v 0.147626 -0.539785 0.160227
v -0.068573 -0.043947 0.562558
v -0.338550 0.013536 0.657794
v -0.308232 -0.472106 0.205958
v -0.138314 -0.505947 0.034080
v 0.233005 0.205339 -0.618048
v -0.004211 0.001588 0.617601
v -0.108631 0.091335 0.658893
v -0.702561 -0.506800 -0.119482
v -0.537648 -0.381039 0.185034
v -0.718291 -0.428089 -0.141733
v 0.363925 -0.096818 0.383091
v 0.505057 0.020035 0.334523
v -0.174256 0.505230 0.194146
v 0.547614 0.043009 0.000136
v -0.321561 -0.540737 -0.366030
v 0.439367 0.293267 0.026562
v -0.333092 -0.150353 -0.502693
v 0.294490 -0.489942 -0.006989
v 0.351992 -0.375198 0.130999
v 0.151101 -0.349543 0.242632
v 0.036878 -0.568025 0.021826
v 0.152807 -0.501313 -0.133694
v -0.013736 -0.504189 0.273302
v -0.068289 -0.518869 0.131948
v -0.201303 -0.040261 0.646960
v -0.226888 -0.212162 0.567048
v -0.070511 -0.164056 0.435286
v -0.389850 0.117846 0.674752
v -0.399586 -0.450953 0.091220
v -0.254550 -0.499919 0.050954
v -0.192162 -0.498015 0.191875
v -0.175460 -0.483298 0.338915
v -0.336137 -0.410876 0.293454
v -0.111064 -0.541180 -0.074546
v -0.307260 -0.582775 -0.101462
v 0.125162 0.293306 -0.617525
v 0.247266 0.393849 -0.460835
v 0.375839 0.271293 -0.565269
v 0.408123 0.084233 -0.572209
v 0.214504 0.062357 -0.624902
v 0.059460 0.112932 -0.677090
v 0.240800 0.023004 0.560156
v 0.209241 0.173930 0.527828
v -0.632593 -0.406017 -0.250925
v -0.579491 -0.528146 -0.206956
v -0.600798 -0.241904 0.393708
v -0.686667 -0.086136 0.278314
v -0.694277 -0.269241 0.108056
v -0.396108 -0.322076 0.429909
v -0.706714 -0.371312 -0.039698
v -0.641845 -0.467750 0.002689
v -0.513240 -0.546596 -0.047573
v -0.658735 -0.287332 -0.168807
v 0.174200 -0.062979 0.471531
v 0.151695 -0.188066 0.363060
v 0.368175 -0.210774 0.281641
v 0.486983 -0.092828 0.148203
v 0.424478 0.184764 0.269338
v -0.014184 0.475533 0.090448
v -0.139234 0.472375 -0.083334
v -0.300338 0.451726 0.105190
v -0.170905 0.429586 0.348715
v 0.066385 0.451211 0.253790
v -0.352948 0.303694 0.302280
v 0.593184 0.145072 0.033459
v 0.548147 -0.030241 -0.158403
v 0.594704 0.131615 -0.190946
v -0.119480 -0.346134 -0.601849
v 0.064439 -0.322192 -0.459246
v -0.058784 -0.466199 -0.248341
v -0.443290 -0.354921 -0.413546
v -0.247979 -0.243582 -0.586513
v 0.458756 0.374459 -0.103685
v 0.276876 0.412250 0.065065
v 0.335280 0.298543 0.189514
v 0.536816 0.246553 0.035727
v 0.519164 0.240850 -0.173801
v -0.029496 -0.332521 0.348245
v -0.512509 -0.201491 -0.359570
v -0.525150 -0.020648 -0.238202
v -0.305438 0.016812 -0.453148
v -0.141782 -0.039742 -0.634906
v -0.288022 0.245587 -0.365710
v -0.082716 0.193969 -0.587429
v 0.000093 -0.124102 -0.725983
v 0.176463 -0.142592 -0.604812
v 0.360476 -0.109585 -0.464416
v 0.276184 -0.323939 -0.318921
v 0.536521 -0.104690 -0.343298
v 0.453209 -0.343908 -0.195563
v 0.453436 -0.230288 -0.032347
v 0.537593 0.114096 -0.400223
v 0.512602 0.295740 -0.387167
v 0.379444 0.400637 -0.276236
v 0.070362 0.394020 -0.275686
v 0.191928 0.427410 -0.091186
v -0.022253 0.358446 -0.486841
v -0.244809 0.405564 -0.258342
v -0.515355 0.213475 -0.127666
v -0.467060 0.400156 -0.022351
v -0.612742 0.053908 0.105076
v -0.530037 0.220259 0.231541
v -0.617757 0.108000 0.443852
v -0.403752 0.227995 0.520060
v -0.549121 -0.036279 0.541127
v -0.145997 0.246399 0.487755
v 0.128868 0.302444 0.394360
v -0.398003 -0.140486 0.572812
v -0.203279 -0.304370 0.386285
v -0.639710 -0.155688 -0.027232
vt 0.612940 0.243970
vt 0.595070 0.181990
vt 0.520390 0.191940
vt 0.552680 0.257960
vt 0.612940 0.243970
vt 0.675330 0.257980
vt 0.672740 0.195720
vt 0.595070 0.181990
vt 0.612940 0.243970
vt 0.628980 0.302730
vt 0.675490 0.305450
vt 0.675330 0.257980
vt 0.511680 0.374400
vt 0.484210 0.376040
vt 0.485840 0.415580
vt 0.530150 0.416030
vt 0.511680 0.374400
vt 0.530150 0.416030
vt 0.573240 0.400850
vt 0.548000 0.346580
vt 0.545130 0.454420
vt 0.530150 0.416030
vt 0.485840 0.415580
vt 0.532060 0.478770
vt 0.695460 0.398410
vt 0.728410 0.434590
vt 0.728020 0.368750
vt 0.685640 0.353240
vt 0.695460 0.398410
vt 0.685640 0.353240
vt 0.650510 0.356020
vt 0.673180 0.414700
vt 0.695460 0.398410
vt 0.673180 0.414700
vt 0.714040 0.501190
vt 0.728410 0.434590
vt 0.714760 0.320770
vt 0.735950 0.295400
vt 0.675330 0.257980
vt 0.675490 0.305450
vt 0.714760 0.320770
vt 0.728020 0.368750
vt 0.776820 0.375480
vt 0.735950 0.295400
vt 0.714760 0.320770
vt 0.675490 0.305450
vt 0.685640 0.353240
vt 0.728020 0.368750
vt 0.142040 0.634080
vt 0.189850 0.657320
vt 0.193980 0.572930
vt 0.134340 0.559750
vt 0.142040 0.634080
vt 0.134340 0.559750
vt 0.078620 0.555780
vt 0.107930 0.663700
vt 0.142040 0.634080
vt 0.107930 0.663700
vt 0.178840 0.730800
vt 0.189850 0.657320
vt 0.485840 0.415580
vt 0.484210 0.376040
vt 0.432170 0.327630
vt 0.403400 0.363890
vt 0.795780 0.544360
vt 0.796780 0.576440
vt 0.836930 0.554740
vt 0.818550 0.495020
vt 0.714040 0.501190
vt 0.651010 0.511250
vt 0.644570 0.583770
vt 0.712390 0.586790
vt 0.714040 0.501190
vt 0.673180 0.414700
vt 0.643480 0.437280
vt 0.651010 0.511250
vt 0.714040 0.501190
vt 0.712390 0.586790
vt 0.763400 0.588650
vt 0.763470 0.532980
vt 0.714040 0.501190
vt 0.763470 0.532980
vt 0.777980 0.467740
vt 0.728410 0.434590
vt 0.796780 0.576440
vt 0.795780 0.544360
vt 0.763470 0.532980
vt 0.763400 0.588650
vt 0.796780 0.576440
vt 0.763400 0.588650
vt 0.779360 0.654960
vt 0.836930 0.554740
vt 0.423890 0.261010
vt 0.357890 0.258610
vt 0.432170 0.327630
vt 0.467970 0.310230
vt 0.423890 0.261010
vt 0.467970 0.310230
vt 0.506000 0.284320
vt 0.450460 0.226220
vt 0.423890 0.261010
vt 0.450460 0.226220
vt 0.374740 0.196750
vt 0.357890 0.258610
vt 0.357890 0.258610
vt 0.322630 0.321270
vt 0.403400 0.363890
vt 0.432170 0.327630
vt 0.397760 0.551890
vt 0.346860 0.532040
vt 0.354470 0.606350
vt 0.424450 0.599070
vt 0.397760 0.551890
vt 0.422520 0.518610
vt 0.355230 0.475450
vt 0.346860 0.532040
vt 0.397760 0.551890
vt 0.424450 0.599070
vt 0.480940 0.567860
vt 0.422520 0.518610
vt 0.269010 0.195760
vt 0.252310 0.256020
vt 0.357890 0.258610
vt 0.374740 0.196750
vt 0.269010 0.195760
vt 0.118110 0.287510
vt 0.155540 0.328770
vt 0.252310 0.256020
vt 0.855920 0.360400
vt 0.890140 0.220800
vt 0.795420 0.149730
vt 0.768280 0.246260
vt 0.855920 0.360400
vt 0.818550 0.495020
vt 0.836930 0.554740
vt 0.908420 0.425600
vt 0.855920 0.360400
vt 0.776820 0.375480
vt 0.777980 0.467740
vt 0.818550 0.495020
vt 0.855920 0.360400
vt 0.768280 0.246260
vt 0.735950 0.295400
vt 0.776820 0.375480
vt 0.855920 0.360400
vt 0.908420 0.425600
vt 0.953760 0.273000
vt 0.890140 0.220800
vt 0.250300 0.358400
vt 0.220250 0.407100
vt 0.282680 0.436570
vt 0.304800 0.378920
vt 0.250300 0.358400
vt 0.245650 0.310110
vt 0.180590 0.368830
vt 0.220250 0.407100
vt 0.250300 0.358400
vt 0.304800 0.378920
vt 0.322630 0.321270
vt 0.245650 0.310110
vt 0.612940 0.243970
vt 0.552680 0.257960
vt 0.584080 0.319290
vt 0.628980 0.302730
vt 0.992550 0.356380
vt 0.953760 0.273000
vt 0.908420 0.425600
vt 0.946920 0.500410
vt 0.444320 0.877870
vt 0.617940 0.818560
vt 0.575030 0.760670
vt 0.407840 0.816630
vt 0.444320 0.877870
vt 0.407840 0.816630
vt 0.274710 0.843390
vt 0.389310 0.925010
vt 0.274710 0.843390
vt 0.407840 0.816630
vt 0.382440 0.738010
vt 0.257160 0.742930
vt 0.274710 0.843390
vt 0.257160 0.742930
vt 0.178840 0.730800
vt 0.140170 0.811770
vt 0.996090 0.163730
vt 0.921650 0.103540
vt 0.890140 0.220800
vt 0.953760 0.273000
vt 0.140170 0.811770
vt 0.178840 0.730800
vt 0.107930 0.663700
vt 0.043850 0.705220
vt 0.921650 0.103540
vt 0.813170 0.048310
vt 0.795420 0.149730
vt 0.890140 0.220800
vt 0.043850 0.705220
vt 0.107930 0.663700
vt 0.078620 0.555780
vt 0.003900 0.551220
vt 0.813170 0.048310
vt 0.669400 0.003900
vt 0.670840 0.099150
vt 0.795420 0.149730
vt 0.670840 0.099150
vt 0.669400 0.003900
vt 0.523040 0.009630
vt 0.555580 0.100680
vt 0.670840 0.099150
vt 0.555580 0.100680
vt 0.595070 0.181990
vt 0.672740 0.195720
vt 0.670840 0.099150
vt 0.672740 0.195720
vt 0.768280 0.246260
vt 0.795420 0.149730
vt 0.555580 0.100680
vt 0.523040 0.009630
vt 0.387900 0.078590
vt 0.460310 0.134010
vt 0.555580 0.100680
vt 0.460310 0.134010
vt 0.520390 0.191940
vt 0.595070 0.181990
vt 0.460310 0.134010
vt 0.387900 0.078590
vt 0.269010 0.195760
vt 0.374740 0.196750
vt 0.460310 0.134010
vt 0.374740 0.196750
vt 0.450460 0.226220
vt 0.520390 0.191940
vt 0.021890 0.403130
vt 0.003900 0.551220
vt 0.078620 0.555780
vt 0.095760 0.439690
vt 0.021890 0.403130
vt 0.095760 0.439690
vt 0.155540 0.328770
vt 0.118110 0.287510
vt 0.095760 0.439690
vt 0.078620 0.555780
vt 0.134340 0.559750
vt 0.147420 0.462910
vt 0.095760 0.439690
vt 0.147420 0.462910
vt 0.180590 0.368830
vt 0.155540 0.328770
vt 0.147420 0.462910
vt 0.134340 0.559750
vt 0.193980 0.572930
vt 0.202760 0.482680
vt 0.147420 0.462910
vt 0.202760 0.482680
vt 0.220250 0.407100
vt 0.180590 0.368830
vt 0.202760 0.482680
vt 0.193980 0.572930
vt 0.270520 0.591070
vt 0.271650 0.503260
vt 0.202760 0.482680
vt 0.271650 0.503260
vt 0.282680 0.436570
vt 0.220250 0.407100
vt 0.271650 0.503260
vt 0.270520 0.591070
vt 0.354470 0.606350
vt 0.346860 0.532040
vt 0.271650 0.503260
vt 0.346860 0.532040
vt 0.355230 0.475450
vt 0.282680 0.436570
vt 0.270520 0.591070
vt 0.260470 0.671260
vt 0.368240 0.679390
vt 0.354470 0.606350
vt 0.270520 0.591070
vt 0.193980 0.572930
vt 0.189850 0.657320
vt 0.260470 0.671260
vt 0.368240 0.679390
vt 0.382440 0.738010
vt 0.514210 0.707780
vt 0.466470 0.657810
vt 0.368240 0.679390
vt 0.466470 0.657810
vt 0.424450 0.599070
vt 0.354470 0.606350
vt 0.368240 0.679390
vt 0.260470 0.671260
vt 0.257160 0.742930
vt 0.382440 0.738010
vt 0.466470 0.657810
vt 0.514210 0.707780
vt 0.611020 0.651000
vt 0.540260 0.612390
vt 0.466470 0.657810
vt 0.540260 0.612390
vt 0.480940 0.567860
vt 0.424450 0.599070
vt 0.540260 0.612390
vt 0.611020 0.651000
vt 0.644570 0.583770
vt 0.573420 0.553840
vt 0.540260 0.612390
vt 0.573420 0.553840
vt 0.507030 0.521480
vt 0.480940 0.567860
vt 0.507030 0.521480
vt 0.573420 0.553840
vt 0.592380 0.509450
vt 0.532060 0.478770
vt 0.507030 0.521480
vt 0.532060 0.478770
vt 0.485840 0.415580
vt 0.449600 0.465940
vt 0.507030 0.521480
vt 0.449600 0.465940
vt 0.422520 0.518610
vt 0.480940 0.567860
vt 0.449600 0.465940
vt 0.485840 0.415580
vt 0.403400 0.363890
vt 0.376700 0.416110
vt 0.449600 0.465940
vt 0.376700 0.416110
vt 0.355230 0.475450
vt 0.422520 0.518610
vt 0.376700 0.416110
vt 0.403400 0.363890
vt 0.322630 0.321270
vt 0.304800 0.378920
vt 0.376700 0.416110
vt 0.304800 0.378920
vt 0.282680 0.436570
vt 0.355230 0.475450
vt 0.592380 0.509450
vt 0.651010 0.511250
vt 0.643480 0.437280
vt 0.591620 0.453530
vt 0.592380 0.509450
vt 0.591620 0.453530
vt 0.545130 0.454420
vt 0.532060 0.478770
vt 0.592380 0.509450
vt 0.573420 0.553840
vt 0.644570 0.583770
vt 0.651010 0.511250
vt 0.591620 0.453530
vt 0.643480 0.437280
vt 0.612790 0.374740
vt 0.573240 0.400850
vt 0.591620 0.453530
vt 0.573240 0.400850
vt 0.530150 0.416030
vt 0.545130 0.454420
vt 0.612790 0.374740
vt 0.650510 0.356020
vt 0.628980 0.302730
vt 0.584080 0.319290
vt 0.612790 0.374740
vt 0.584080 0.319290
vt 0.548000 0.346580
vt 0.573240 0.400850
vt 0.612790 0.374740
vt 0.643480 0.437280
vt 0.673180 0.414700
vt 0.650510 0.356020
vt 0.611020 0.651000
vt 0.697760 0.659130
vt 0.712390 0.586790
vt 0.644570 0.583770
vt 0.611020 0.651000
vt 0.514210 0.707780
vt 0.575030 0.760670
vt 0.697760 0.659130
vt 0.697760 0.659130
vt 0.779360 0.654960
vt 0.763400 0.588650
vt 0.712390 0.586790
vt 0.697760 0.659130
vt 0.575030 0.760670
vt 0.617940 0.818560
vt 0.779360 0.654960
vt 0.514210 0.707780
vt 0.382440 0.738010
vt 0.407840 0.816630
vt 0.575030 0.760670
vt 0.260470 0.671260
vt 0.189850 0.657320
vt 0.178840 0.730800
vt 0.257160 0.742930
vt 0.946920 0.500410
vt 0.908420 0.425600
vt 0.836930 0.554740
vt 0.779360 0.654960
vt 0.584080 0.319290
vt 0.552680 0.257960
vt 0.506000 0.284320
vt 0.548000 0.346580
vt 0.180590 0.368830
vt 0.245650 0.310110
vt 0.252310 0.256020
vt 0.155540 0.328770
vt 0.245650 0.310110
vt 0.322630 0.321270
vt 0.357890 0.258610
vt 0.252310 0.256020
vt 0.768280 0.246260
vt 0.672740 0.195720
vt 0.675330 0.257980
vt 0.735950 0.295400
vt 0.450460 0.226220
vt 0.506000 0.284320
vt 0.552680 0.257960
vt 0.520390 0.191940
vt 0.506000 0.284320
vt 0.467970 0.310230
vt 0.511680 0.374400
vt 0.548000 0.346580
vt 0.467970 0.310230
vt 0.432170 0.327630
vt 0.484210 0.376040
vt 0.511680 0.374400
vt 0.777980 0.467740
vt 0.763470 0.532980
vt 0.795780 0.544360
vt 0.818550 0.495020
vt 0.777980 0.467740
vt 0.776820 0.375480
vt 0.728020 0.368750
vt 0.728410 0.434590
vt 0.650510 0.356020
vt 0.685640 0.353240
vt 0.675490 0.305450
vt 0.628980 0.302730
vn 0.370287 -0.814738 0.446196
vn 0.576971 -0.816654 0.013474
vn 0.697633 -0.549611 0.459604
vn 0.391453 -0.517058 0.761194
vn 0.049649 -0.993706 -0.100418
vn 0.244202 -0.880819 -0.405614
vn -0.106862 -0.979135 0.172844
vn -0.151711 -0.976321 0.154211
vn 0.333259 -0.634206 0.697654
vn 0.277751 -0.312960 0.908246
vn 0.131658 0.517501 0.845493
vn 0.161221 -0.401426 0.901590
vn 0.180866 -0.638314 0.748226
vn 0.339600 -0.601889 0.722773
vn -0.182455 -0.291528 0.939000
vn -0.276912 0.451044 0.848457
vn -0.332478 -0.916928 0.220684
vn -0.188276 -0.873956 0.448055
vn -0.073532 -0.936624 0.342532
vn -0.188922 -0.973697 0.127369
vn 0.007786 -0.687753 0.725903
vn -0.304700 -0.810830 0.499713
vn -0.526770 -0.727964 0.438843
vn -0.114334 -0.970129 0.213958
vn 0.132439 -0.980244 -0.146909
vn 0.054488 -0.998025 0.031263
vn 0.261313 0.284475 -0.922383
vn -0.066745 0.683676 -0.726727
vn 0.112820 0.931792 -0.345015
vn 0.511928 0.494500 -0.702424
vn 0.602869 -0.150826 -0.783454
vn 0.410426 -0.116055 -0.904479
vn -0.045384 0.230802 -0.971942
vn 0.525362 0.323391 0.787028
vn 0.389697 0.589153 0.707838
vn -0.618589 -0.429033 -0.658239
vn -0.945650 -0.093985 -0.311310
vn -0.675861 -0.206186 -0.707601
vn -0.376817 -0.838274 -0.394089
vn -0.674096 -0.516271 0.528260
vn -0.989581 0.044665 0.136877
vn -0.979455 -0.150768 0.133927
vn -0.273002 -0.725948 0.631245
vn -0.987247 -0.045239 0.152630
vn -0.477347 -0.727162 0.493330
vn -0.160151 -0.957028 0.241762
vn -0.531689 -0.795743 0.290000
vn -0.872797 0.270503 -0.406269
vn 0.478783 -0.610329 0.631083
vn 0.832052 0.005665 0.554669
vn 0.340721 -0.673286 0.656198
vn 0.251921 -0.687285 0.681304
vn 0.249537 -0.607481 0.754121
vn 0.589088 -0.591284 0.550780
vn 0.887198 -0.413381 0.204930
vn 0.618913 0.594861 0.512920
vn -0.195966 0.962665 0.186744
vn 0.115509 0.992769 -0.032682
vn -0.047074 0.980564 -0.190470
vn -0.394823 0.908357 0.137852
vn -0.119551 0.809943 0.574195
vn 0.298354 0.847650 0.438719
vn -0.472360 0.789975 0.390916
vn 0.932996 -0.346062 0.098788
vn 0.963998 0.155765 0.215514
vn 0.959586 -0.276928 0.050057
vn 0.993696 0.083331 -0.074997
vn -0.041598 -0.857323 -0.513096
vn 0.419766 -0.786341 -0.453283
vn 0.390146 -0.768795 -0.506696
vn 0.289596 -0.879375 -0.377933
vn -0.566873 -0.289493 -0.771265
vn -0.527205 -0.186169 -0.829094
vn -0.443905 -0.326944 -0.834300
vn 0.606332 0.711857 0.354431
vn 0.529488 0.842778 0.096786
vn 0.387446 0.891782 0.233690
vn 0.515212 0.732552 0.444887
vn 0.742760 0.609600 0.276938
vn 0.846319 0.531206 -0.039542
vn 0.343753 -0.426713 0.836511
vn 0.397048 -0.325644 0.858085
vn -0.659506 0.205134 -0.723168
vn -0.750552 0.229785 -0.619573
vn -0.813759 0.307264 -0.493341
vn -0.671880 0.310834 -0.672279
vn -0.542340 0.186552 -0.819186
vn -0.638429 0.433993 -0.635655
vn -0.521258 0.418313 -0.743844
vn 0.097359 -0.267915 -0.958511
vn 0.478703 -0.500026 -0.721677
vn 0.514566 -0.517570 -0.683625
vn 0.373088 -0.733907 -0.567614
vn 0.812374 -0.422294 -0.402140
vn 0.714652 -0.647648 -0.264243
vn 0.900112 -0.395293 0.183144
vn 0.888278 -0.035707 -0.457917
vn 0.748385 0.559764 -0.355787
vn 0.312407 0.940402 -0.134333
vn 0.015375 0.978432 -0.205998
vn 0.128428 0.989003 -0.073352
vn -0.268772 0.820375 -0.504724
vn -0.366546 0.820283 -0.439067
vn -0.833474 0.380301 -0.400864
vn -0.675288 0.727998 -0.118347
vn -0.931500 0.327440 -0.158400
vn -0.769444 0.628210 0.115362
vn -0.834224 0.449973 0.318741
vn -0.357991 0.768575 0.530221
vn -0.695820 -0.109865 0.709763
vn 0.019610 0.755736 0.654583
vn 0.299278 0.736351 0.606811
vn -0.278337 -0.522780 0.805748
vn 0.146710 -0.605510 0.782198
vn -0.926709 0.270048 -0.261314
s 1
g TN_river_rocks_1:Group1
usemtl TN_river_rocks_1:defaultMat
f 1/1/1 19/2/2 20/3/3 21/4/4
f 1/5/1 22/6/5 23/7/6 19/8/2
f 1/9/1 24/10/7 25/11/8 22/12/5
f 2/13/9 7/14/10 8/15/11 26/16/12
f 2/17/9 26/18/12 27/19/13 28/20/14
f 3/21/15 26/22/12 8/23/11 29/24/16
f 4/25/17 30/26/18 31/27/19 32/28/20
f 4/29/17 32/30/20 33/31/21 34/32/22
f 4/33/17 34/34/22 10/35/23 30/36/18
f 5/37/24 35/38/25 22/39/5 25/40/8
f 5/41/24 31/42/19 36/43/26 35/44/25
f 5/45/24 25/46/8 32/47/20 31/48/19
f 6/49/27 37/50/28 38/51/29 39/52/30
f 6/53/27 39/54/30 40/55/31 41/56/32
f 6/57/27 41/58/32 42/59/33 37/60/28
f 8/61/11 7/62/10 43/63/34 44/64/35
f 9/65/36 11/66/37 45/67/38 46/68/39
f 10/69/23 47/70/40 48/71/41 49/72/42
f 10/73/23 34/74/22 50/75/43 47/76/40
f 10/77/23 49/78/42 51/79/44 52/80/45
f 10/81/23 52/82/45 53/83/46 30/84/18
f 11/85/37 9/86/47 52/87/45 51/88/44
f 11/89/37 51/90/44 54/91/48 45/92/38
f 12/93/49 13/94/50 43/95/51 55/96/52
f 12/97/49 55/98/52 56/99/53 57/100/54
f 12/101/49 57/102/54 58/103/55 13/104/50
f 13/105/50 59/106/56 44/107/35 43/108/34
f 14/109/57 60/110/58 61/111/59 62/112/60
f 14/113/57 63/114/61 64/115/62 60/116/58
f 14/117/57 62/118/60 65/119/63 63/120/61
f 15/121/64 66/122/65 13/123/50 58/124/55
f 15/125/64 67/126/66 68/127/67 66/128/65
f 16/129/68 69/130/69 70/131/70 71/132/71
f 16/133/68 46/134/39 45/135/38 72/136/72
f 16/137/68 36/138/26 53/139/46 46/140/39
f 16/141/68 71/142/71 35/143/25 36/144/26
f 16/145/68 72/146/72 73/147/73 69/148/74
f 17/149/75 74/150/76 75/151/77 76/152/78
f 17/153/75 77/154/79 78/155/80 74/156/76
f 17/157/75 76/158/78 59/159/56 77/160/79
f 1/161/1 21/162/4 79/163/81 24/164/82
f 18/165/83 73/166/73 72/167/72 80/168/84
f 18/169/83 80/170/84 81/171/85 82/172/86
f 18/173/83 82/174/86 83/175/87 73/176/73
f 83/177/87 82/178/86 84/179/88 85/180/89
f 83/181/87 85/182/89 42/183/33 86/184/90
f 83/185/87 86/186/90 69/187/74 73/188/73
f 86/189/90 42/190/33 41/191/32 87/192/91
f 86/193/90 87/194/91 70/195/70 69/196/69
f 87/197/91 41/198/32 40/199/31 88/200/92
f 87/201/91 88/202/92 89/203/93 70/204/70
f 89/205/93 88/206/92 90/207/94 91/208/95
f 89/209/93 91/210/95 19/211/2 23/212/6
f 89/213/93 23/214/6 71/215/71 70/216/70
f 91/217/95 90/218/94 67/219/66 92/220/96
f 91/221/95 92/222/96 20/223/3 19/224/2
f 92/225/96 67/226/66 15/227/64 58/228/55
f 92/229/96 58/230/55 57/231/54 20/232/3
f 90/233/94 88/234/92 40/235/31 93/236/97
f 90/237/94 93/238/97 68/239/67 67/240/66
f 93/241/97 40/242/31 39/243/30 94/244/98
f 93/245/97 94/246/98 78/247/80 68/248/67
f 94/249/98 39/250/30 38/251/29 95/252/99
f 94/253/98 95/254/99 74/255/76 78/256/80
f 95/257/99 38/258/29 96/259/100 97/260/101
f 95/261/99 97/262/101 75/263/77 74/264/76
f 97/265/101 96/266/100 61/267/59 60/268/58
f 97/269/101 60/270/58 64/271/62 75/272/77
f 96/273/100 98/274/102 99/275/103 61/276/59
f 96/277/100 38/278/29 37/279/28 98/280/102
f 99/281/103 84/282/88 100/283/104 101/284/105
f 99/285/103 101/286/105 62/287/60 61/288/59
f 99/289/103 98/290/102 85/291/89 84/292/88
f 101/293/105 100/294/104 102/295/106 103/296/107
f 101/297/105 103/298/107 65/299/63 62/300/60
f 103/301/107 102/302/106 48/303/41 104/304/108
f 103/305/107 104/306/108 105/307/109 65/308/63
f 105/309/109 104/310/108 106/311/110 29/312/16
f 105/313/109 29/314/16 8/315/11 107/316/111
f 105/317/109 107/318/111 63/319/61 65/320/63
f 107/321/111 8/322/11 44/323/35 108/324/112
f 107/325/111 108/326/112 64/327/62 63/328/61
f 108/329/112 44/330/35 59/331/56 76/332/78
f 108/333/112 76/334/78 75/335/77 64/336/62
f 106/337/110 47/338/40 50/339/43 109/340/113
f 106/341/110 109/342/113 3/343/15 29/344/16
f 106/345/110 104/346/108 48/347/41 47/348/40
f 109/349/113 50/350/43 110/351/114 27/352/13
f 109/353/113 27/354/13 26/355/12 3/356/15
f 110/357/114 33/358/21 24/359/82 79/360/81
f 110/361/114 79/362/81 28/363/14 27/364/13
f 110/365/114 50/366/43 34/367/22 33/368/21
f 102/369/106 111/370/115 49/371/42 48/372/41
f 102/373/106 100/374/104 81/375/85 111/376/115
f 111/377/115 54/378/48 51/379/44 49/380/42
f 111/381/115 81/382/85 80/383/84 54/384/48
f 100/385/104 84/386/88 82/387/86 81/388/85
f 98/389/102 37/390/28 42/391/33 85/392/89
f 80/393/84 72/394/72 45/395/38 54/396/48
f 79/397/81 21/398/4 56/399/53 28/400/14
f 78/401/80 77/402/79 66/403/65 68/404/67
f 77/405/79 59/406/56 13/407/50 66/408/65
f 71/409/71 23/410/6 22/411/5 35/412/25
f 57/413/54 56/414/53 21/415/4 20/416/3
f 56/417/53 55/418/52 2/419/9 28/420/14
f 55/421/52 43/422/51 7/423/10 2/424/9
f 53/425/46 52/426/45 9/427/47 46/428/39
f 53/429/46 36/430/26 31/431/19 30/432/18
f 33/433/21 32/434/20 25/435/8 24/436/7
